<?xml version="1.0" encoding="UTF-8" standalone="no"?>
<svg
   id="visual"
   viewBox="0 0 900 600"
   width="900"
   height="600"
   version="1.1"
   sodipodi:docname="feature-bg.svg"
   inkscape:version="1.4.2 (f4327f4, 2025-05-13)"
   xmlns:inkscape="http://www.inkscape.org/namespaces/inkscape"
   xmlns:sodipodi="http://sodipodi.sourceforge.net/DTD/sodipodi-0.dtd"
   xmlns="http://www.w3.org/2000/svg"
   xmlns:svg="http://www.w3.org/2000/svg">
  <defs
     id="defs1" />
  <sodipodi:namedview
     id="namedview1"
     pagecolor="#ffffff"
     bordercolor="#000000"
     borderopacity="0.25"
     inkscape:showpageshadow="2"
     inkscape:pageopacity="0.0"
     inkscape:pagecheckerboard="0"
     inkscape:deskcolor="#d1d1d1"
     inkscape:zoom="1.345"
     inkscape:cx="449.81413"
     inkscape:cy="384.75836"
     inkscape:window-width="1920"
     inkscape:window-height="1046"
     inkscape:window-x="-11"
     inkscape:window-y="-11"
     inkscape:window-maximized="1"
     inkscape:current-layer="visual" />
  <rect
     x="0"
     y="-600"
     width="900"
     height="600"
     fill="#4f46e5"
     id="rect1"
     transform="scale(1,-1)" />
  <g
     transform="matrix(-1,0,0,1,401.36224,237.74969)"
     id="g1">
    <path
       d="m 147.1,-149.3 c 81,5.6 210,-1.5 283,50.4 73,51.8 90.1,162.7 61.8,261.5 -28.3,98.9 -102,185.8 -191.5,248.7 -89.6,62.9 -195,101.8 -271.8,62.4 -76.8,-39.4 -125,-157 -222.5,-217.3 C -291.4,196 -438.1,193 -521,125.1 c -82.9,-67.9 -101.9,-200.8 -58.6,-307 43.3,-106.3 148.9,-185.9 255.9,-183.1 107,2.7 215.4,87.9 286.1,139.7 70.7,51.8 103.7,70.3 184.7,76"
       fill="#312e81"
       id="path1" />
  </g>
</svg>
