<svg id="visual" viewBox="0 0 900 600" width="900" height="600" xmlns="http://www.w3.org/2000/svg" xmlns:xlink="http://www.w3.org/1999/xlink" version="1.1"><rect x="0" y="0" width="900" height="600" fill="#4F46E5"></rect><g transform="translate(498.63775032910917 237.74968414248215)"><path d="M147.1 -149.3C228.1 -143.7 357.1 -150.8 430.1 -98.9C503.1 -47.1 520.2 63.8 491.9 162.6C463.6 261.5 389.9 348.4 300.4 411.3C210.8 474.2 105.4 513.1 28.6 473.7C-48.2 434.3 -96.4 316.7 -193.9 256.4C-291.4 196 -438.1 193 -521 125.1C-603.9 57.2 -622.9 -75.7 -579.6 -181.9C-536.3 -288.2 -430.7 -367.8 -323.7 -365C-216.7 -362.3 -108.3 -277.1 -37.6 -225.3C33.1 -173.5 66.1 -155 147.1 -149.3" fill="#312E81"></path></g></svg>