<svg id="visual" viewBox="0 0 900 600" width="900" height="600" xmlns="http://www.w3.org/2000/svg" xmlns:xlink="http://www.w3.org/1999/xlink" version="1.1"><path d="M0 73L18.8 76C37.7 79 75.3 85 112.8 84C150.3 83 187.7 75 225.2 80C262.7 85 300.3 103 337.8 104C375.3 105 412.7 89 450.2 80C487.7 71 525.3 69 562.8 63C600.3 57 637.7 47 675.2 57C712.7 67 750.3 97 787.8 114C825.3 131 862.7 135 881.3 137L900 139L900 0L881.3 0C862.7 0 825.3 0 787.8 0C750.3 0 712.7 0 675.2 0C637.7 0 600.3 0 562.8 0C525.3 0 487.7 0 450.2 0C412.7 0 375.3 0 337.8 0C300.3 0 262.7 0 225.2 0C187.7 0 150.3 0 112.8 0C75.3 0 37.7 0 18.8 0L0 0Z" fill="#4f46e5"></path><path d="M0 277L18.8 275C37.7 273 75.3 269 112.8 267C150.3 265 187.7 265 225.2 260C262.7 255 300.3 245 337.8 259C375.3 273 412.7 311 450.2 297C487.7 283 525.3 217 562.8 182C600.3 147 637.7 143 675.2 160C712.7 177 750.3 215 787.8 245C825.3 275 862.7 297 881.3 308L900 319L900 137L881.3 135C862.7 133 825.3 129 787.8 112C750.3 95 712.7 65 675.2 55C637.7 45 600.3 55 562.8 61C525.3 67 487.7 69 450.2 78C412.7 87 375.3 103 337.8 102C300.3 101 262.7 83 225.2 78C187.7 73 150.3 81 112.8 82C75.3 83 37.7 77 18.8 74L0 71Z" fill="#4740cb"></path><path d="M0 385L18.8 391C37.7 397 75.3 409 112.8 418C150.3 427 187.7 433 225.2 425C262.7 417 300.3 395 337.8 399C375.3 403 412.7 433 450.2 407C487.7 381 525.3 299 562.8 278C600.3 257 637.7 297 675.2 313C712.7 329 750.3 321 787.8 342C825.3 363 862.7 413 881.3 438L900 463L900 317L881.3 306C862.7 295 825.3 273 787.8 243C750.3 213 712.7 175 675.2 158C637.7 141 600.3 145 562.8 180C525.3 215 487.7 281 450.2 295C412.7 309 375.3 271 337.8 257C300.3 243 262.7 253 225.2 258C187.7 263 150.3 263 112.8 265C75.3 267 37.7 271 18.8 273L0 275Z" fill="#3f3ab2"></path><path d="M0 523L18.8 528C37.7 533 75.3 543 112.8 544C150.3 545 187.7 537 225.2 540C262.7 543 300.3 557 337.8 564C375.3 571 412.7 571 450.2 558C487.7 545 525.3 519 562.8 519C600.3 519 637.7 545 675.2 556C712.7 567 750.3 563 787.8 562C825.3 561 862.7 563 881.3 564L900 565L900 461L881.3 436C862.7 411 825.3 361 787.8 340C750.3 319 712.7 327 675.2 311C637.7 295 600.3 255 562.8 276C525.3 297 487.7 379 450.2 405C412.7 431 375.3 401 337.8 397C300.3 393 262.7 415 225.2 423C187.7 431 150.3 425 112.8 416C75.3 407 37.7 395 18.8 389L0 383Z" fill="#383499"></path><path d="M0 601L18.8 601C37.7 601 75.3 601 112.8 601C150.3 601 187.7 601 225.2 601C262.7 601 300.3 601 337.8 601C375.3 601 412.7 601 450.2 601C487.7 601 525.3 601 562.8 601C600.3 601 637.7 601 675.2 601C712.7 601 750.3 601 787.8 601C825.3 601 862.7 601 881.3 601L900 601L900 563L881.3 562C862.7 561 825.3 559 787.8 560C750.3 561 712.7 565 675.2 554C637.7 543 600.3 517 562.8 517C525.3 517 487.7 543 450.2 556C412.7 569 375.3 569 337.8 562C300.3 555 262.7 541 225.2 538C187.7 535 150.3 543 112.8 542C75.3 541 37.7 531 18.8 526L0 521Z" fill="#312e81"></path></svg>